# xmcd
#
# Track frame offsets:
#	150
#	14700
#	30057
#	46019
#	59431
#	73887
#	92632
#	106528
#	122973
#	134398
#	152734
#	166973
#	182615
#	198627
#	214552
#	231492
#	243374
#	257973
#	280954
#	293025
#	310095
#	324399
#
# Disc length: 4547 seconds
#
# Revision: 0
# Processed by: cddbd v1.5.2PL0 Copyright (c) Steve Scherf et al.
# Submitted via: dBpowerAMP V4.0
#
DISCID=3a11c116
DTITLE=Gauchescas - Gauchescas
DYEAR=2000
DGENRE=Club
TTITLE0=Musica01
TTITLE1=Musica02
TTITLE2=Musica03
TTITLE3=Musica04
TTITLE4=Musica05
TTITLE5=Musica06
TTITLE6=Musica07
TTITLE7=Musica08
TTITLE8=Musica09
TTITLE9=Musica10
TTITLE10=Musica11
TTITLE11=Musica12
TTITLE12=Musica13
TTITLE13=Musica14
TTITLE14=Musica15
TTITLE15=Musica16
TTITLE16=Musica17
TTITLE17=Musica18
TTITLE18=Musica19
TTITLE19=Musica20
TTITLE20=Musica21
TTITLE21=Musica22
EXTD=
EXTT0=
EXTT1=
EXTT2=
EXTT3=
EXTT4=
EXTT5=
EXTT6=
EXTT7=
EXTT8=
EXTT9=
EXTT10=
EXTT11=
EXTT12=
EXTT13=
EXTT14=
EXTT15=
EXTT16=
EXTT17=
EXTT18=
EXTT19=
EXTT20=
EXTT21=
PLAYORDER=
